# xmcd
#
# Track frame offsets: 
#        150
#        19439
#        35523
#        52769
#        75870
#        93962
#        115742
#        134701
#        157559
#        178554
#        200467
#        213642
#        228274
#        249757
#        266545
#        283617
#        301900
#        316149
#        335208
#
# Disc length: 4694 seconds
#
# Revision: 0
# Processed by: cddbd v1.5.1PL0 Copyright (c) Steve Scherf et al.
# Submitted via: ExactAudioCopy v0.95a5
#
DISCID=f6125413
DTITLE=Artista - Album
DYEAR=1900
DGENRE=
TTITLE0=Traccia 01
TTITLE1=Traccia 02
TTITLE2=Traccia 03
TTITLE3=Traccia 04
TTITLE4=Traccia 05
TTITLE5=Traccia 06
TTITLE6=Traccia 07
TTITLE7=Traccia 08
TTITLE8=Traccia 09
TTITLE9=Traccia 10
TTITLE10=Traccia 11
TTITLE11=Traccia 12
TTITLE12=Traccia 13
TTITLE13=Traccia 14
TTITLE14=Traccia 15
TTITLE15=Traccia 16
TTITLE16=Traccia 17
TTITLE17=Traccia 18
TTITLE18=Traccia 19
EXTD=
EXTT0=
EXTT1=
EXTT2=
EXTT3=
EXTT4=
EXTT5=
EXTT6=
EXTT7=
EXTT8=
EXTT9=
EXTT10=
EXTT11=
EXTT12=
EXTT13=
EXTT14=
EXTT15=
EXTT16=
EXTT17=
EXTT18=
PLAYORDER=
